<svg xmlns="http://www.w3.org/2000/svg" viewBox="0 0 192 192">
  <rect width="192" height="192" rx="32" fill="#2f3b52"/>
  <!-- kettlebell -->
  <path d="M96 44c-13 0-22 9-22 21 0 5 2 9 5 13-19 8-31 26-31 47 0 5 4 9 9 9h78c5 0 9-4 9-9 0-21-12-39-31-47 3-4 5-8 5-13 0-12-9-21-22-21z"
        fill="#2b2622" stroke="#000" stroke-width="6" stroke-linejoin="round"/>
  <rect x="84" y="52" width="24" height="16" rx="8" fill="none" stroke="#e8c04a" stroke-width="7"/>
  <circle cx="96" cy="120" r="20" fill="#d94f4f"/>
</svg>
